<svg id="Layer_3" enable-background="new 0 0 64 64" height="512" viewBox="0 0 64 64" width="512" xmlns="http://www.w3.org/2000/svg"><g><g><path d="m6 62c2.209 0 4-1.791 4-4v-56h44v54c0 3.314-2.686 6-6 6z" fill="#c1c8d1"/></g><g><path d="m10 52.856c2.233.742 4.578 1.144 7 1.144 14.912 0 27-14.998 27-33.5 0-6.84-1.656-13.198-4.492-18.5h-29.508z" fill="#f3f4f6"/></g><g><path d="m10 8h-8v50c0 2.209 1.791 4 4 4 2.209 0 4-1.791 4-4z" fill="#c1c8d1"/></g><g><path d="m14 6h36v16h-36z" fill="#96cc7f"/></g><g><path d="m44 45v8c0 1.657-1.343 3-3 3-1.657 0-3-1.343-3-3v-8z" fill="#cfd3d9"/></g><g><path d="m46 31 10-7v28l-10-7z" fill="#ebf7fe"/></g><g><path d="m52 49.2 4 2.8v-28l-4 2.8z" fill="#e0747c"/></g><g><path d="m46 45h-7c-2.761 0-5-2.239-5-5v-4c0-2.761 2.239-5 5-5h7z" fill="#e0747c"/></g><g><path d="m14 26h16v18h-16z" fill="#ebf7fe"/></g><g><path d="m48 63h-42v-2h42c2.757 0 5-2.243 5-5v-5.273h2v5.273c0 3.86-3.14 7-7 7z"/></g><g><path d="m6 63c-2.757 0-5-2.243-5-5v-50c0-.552.448-1 1-1h7v-5c0-.552.448-1 1-1h44c.552 0 1 .448 1 1v23.273h-2v-22.273h-42v55c0 2.757-2.243 5-5 5zm-3-54v49c0 1.654 1.346 3 3 3s3-1.346 3-3v-49z"/></g><g><path d="m50 23h-36c-.552 0-1-.448-1-1v-16c0-.552.448-1 1-1h36c.552 0 1 .448 1 1v16c0 .552-.448 1-1 1zm-35-2h34v-14h-34z"/></g><g><path d="m23 19c-.338 0-.662-.172-.848-.47l-3.152-5.043v5.513h-2v-9c0-.446.295-.838.724-.961.429-.122.887.053 1.124.432l3.152 5.042v-5.513h2v9c0 .446-.295.838-.724.961-.091.026-.184.039-.276.039z"/></g><g><path d="m31 19h-4c-.552 0-1-.448-1-1v-8c0-.552.448-1 1-1h4v2h-3v6h3z"/></g><g><path d="m27 13h4v2h-4z"/></g><g><path d="m38 19c-.402 0-.774-.244-.928-.628l-1.072-2.68-1.071 2.679c-.178.445-.647.699-1.118.61-.471-.09-.811-.502-.811-.981v-9h2v3.808l.071-.179c.153-.38.52-.629.929-.629s.776.249.929.628l.071.18v-3.808h2v9c0 .479-.34.891-.811.982-.064.012-.127.018-.189.018z"/></g><g><path d="m44 19h-3v-2h3c.551 0 1-.449 1-1s-.449-1-1-1c-1.654 0-3-1.346-3-3s1.346-3 3-3h3v2h-3c-.551 0-1 .449-1 1s.449 1 1 1c1.654 0 3 1.346 3 3s-1.346 3-3 3z"/></g><g><path d="m46 46h-7c-3.309 0-6-2.691-6-6v-4c0-3.309 2.691-6 6-6h7c.552 0 1 .448 1 1v14c0 .552-.448 1-1 1zm-7-14c-2.206 0-4 1.794-4 4v4c0 2.206 1.794 4 4 4h6v-12z"/></g><g><path d="m56 53c-.202 0-.402-.061-.573-.181l-10-7 1.146-1.639 8.427 5.9v-24.16l-8.427 5.899-1.146-1.639 10-7c.305-.214.704-.24 1.035-.068.33.173.538.515.538.888v28c0 .373-.208.715-.538.887-.146.075-.304.113-.462.113z"/></g><g><path d="m59 35h4v2h-4z"/></g><g><path d="m58.379 29.5h4.243v2h-4.243z" transform="matrix(.707 -.707 .707 .707 -3.847 51.713)"/></g><g><path d="m59.5 39.379h2v4.243h-2z" transform="matrix(.707 -.707 .707 .707 -11.625 54.935)"/></g><g><path d="m41 57c-2.206 0-4-1.794-4-4v-8h2v8c0 1.103.897 2 2 2s2-.897 2-2v-8h2v8c0 2.206-1.794 4-4 4z"/></g><g><path d="m51 27h2v22h-2z"/></g><g><path d="m30 45h-16c-.552 0-1-.448-1-1v-18c0-.552.448-1 1-1h16c.552 0 1 .448 1 1v18c0 .552-.448 1-1 1zm-15-2h14v-16h-14z"/></g><g><path d="m13 47h22v2h-22z"/></g><g><path d="m13 51h22v2h-22z"/></g><g><path d="m13 55h22v2h-22z"/></g></g></svg>